<?xml version="1.0" encoding="utf-8"?>
<!-- Generator: Adobe Illustrator 24.3.0, SVG Export Plug-In . SVG Version: 6.00 Build 0)  -->
<svg version="1.1" id="Layer_1" xmlns="http://www.w3.org/2000/svg" xmlns:xlink="http://www.w3.org/1999/xlink" x="0px" y="0px"
	 viewBox="0 0 308.62 107.44" style="enable-background:new 0 0 308.62 107.44;" xml:space="preserve">
<style type="text/css">
	.st0{fill:#FFFFFF;}
</style>
<g>
	<g>
		<path class="st0" d="M4.42,1H20.8v2.97H7.97v9.4h12.46v2.97H7.97v10.15h13.16v2.97H4.43L4.42,1L4.42,1z"/>
		<path class="st0" d="M29,1h8.83c6.89,0,10.93,2.93,10.93,8.21c0,4.04-2.35,6.72-6.56,7.75l7.09,12.5h-4.08l-6.81-12
			c-0.21,0-0.37,0-0.58,0h-5.28v12H29V1z M32.55,3.97v10.52h5.69c4.41,0,6.68-1.86,6.68-5.28s-2.27-5.24-6.68-5.24H32.55z"/>
		<path class="st0" d="M56.63,1h8.21c9.07,0,14.52,5.86,14.52,14.23s-5.44,14.23-14.52,14.23h-8.21C56.63,29.46,56.63,1,56.63,1z
			 M60.18,3.97v22.52h4.25c7.01,0,11.09-3.96,11.09-11.26S71.44,3.97,64.43,3.97C64.43,3.97,60.18,3.97,60.18,3.97z"/>
		<path class="st0" d="M86.95,1h16.37v2.97H90.49v9.4h12.46v2.97H90.49v10.15h13.16v2.97h-16.7C86.95,29.46,86.95,1,86.95,1z"/>
		<path class="st0" d="M133.43,1h7.13v28.46h-3.55V1.17l-7.3,28.29h-7.34l-7.3-28.29v28.29h-3.55V1h7.14l7.38,28.29L133.43,1z"/>
		<path class="st0" d="M182.3,1v28.46h-3.55V16.43h-13.53v13.03h-3.55V1h3.55v12.46h13.53V1H182.3z"/>
		<path class="st0" d="M197.8,1h7.34l9.61,28.46H211l-2.89-8.58h-13.28l-2.89,8.58h-3.75L197.8,1z M195.82,17.91h11.3l-5.65-16.75
			L195.82,17.91z"/>
		<path class="st0" d="M242.55,1h7.13v28.46h-3.55V1.17l-7.3,28.29h-7.34l-7.3-28.29v28.29h-3.55V1h7.14l7.38,28.29L242.55,1z"/>
		<path class="st0" d="M272.24,3.97h-15.09V1h19.43v2.97L261.1,26.49h15.84v2.97h-20.17v-2.97L272.24,3.97z"/>
		<path class="st0" d="M290.22,1h7.34l9.61,28.46h-3.75l-2.89-8.58h-13.28l-2.89,8.58h-3.75L290.22,1z M288.24,17.91h11.3
			l-5.65-16.75L288.24,17.91z"/>
		<path class="st0" d="M10.61,38.66h7.34l9.61,28.46h-3.75l-2.89-8.58H7.64l-2.89,8.58H1L10.61,38.66z M8.63,55.56h11.3l-5.65-16.75
			L8.63,55.56z"/>
		<path class="st0" d="M33.46,38.66h8.83c6.89,0,10.93,2.93,10.93,8.21c0,4.04-2.35,6.72-6.56,7.75l7.09,12.5h-4.08l-6.81-12
			c-0.21,0-0.37,0-0.58,0H37v12h-3.55L33.46,38.66L33.46,38.66z M37,41.62v10.52h5.69c4.41,0,6.68-1.86,6.68-5.28
			s-2.27-5.24-6.68-5.24C42.69,41.62,37,41.62,37,41.62z"/>
		<path class="st0" d="M72.1,38.24c6.52,0,11.22,4.21,12.37,10.56H80.8c-0.95-4.78-4.08-7.59-8.54-7.59
			c-5.57,0-9.28,4.87-9.28,11.67c0,7.05,3.88,11.67,9.61,11.67c4.29,0,7.51-2.72,8.46-7.51h3.67c-1.16,6.35-5.94,10.48-12.46,10.48
			c-7.67,0-13.12-6.02-13.12-14.64C59.15,44.76,64.43,38.24,72.1,38.24z"/>
		<path class="st0" d="M112.48,38.66v28.46h-3.55V54.08H95.4v13.03h-3.55V38.66h3.55v12.46h13.53V38.66H112.48z"/>
		<path class="st0" d="M121.79,67.11V38.66h3.55v28.46L121.79,67.11L121.79,67.11z"/>
		<path class="st0" d="M131.32,38.66H154v2.97h-9.57v25.49h-3.55v-25.5h-9.57v-2.96H131.32z"/>
		<path class="st0" d="M159.98,38.66h16.37v2.97h-12.83v9.4h12.46V54h-12.46v10.15h13.16v2.97h-16.7V38.66z"/>
		<path class="st0" d="M195.37,38.24c6.52,0,11.22,4.21,12.37,10.56h-3.67c-0.95-4.78-4.08-7.59-8.54-7.59
			c-5.57,0-9.28,4.87-9.28,11.67c0,7.05,3.88,11.67,9.61,11.67c4.29,0,7.51-2.72,8.46-7.51h3.67c-1.16,6.35-5.94,10.48-12.46,10.48
			c-7.67,0-13.12-6.02-13.12-14.64C182.42,44.76,187.7,38.24,195.37,38.24z"/>
		<path class="st0" d="M211.08,38.66h22.68v2.97h-9.57v25.49h-3.55v-25.5h-9.57L211.08,38.66L211.08,38.66z"/>
		<path class="st0" d="M259.25,57.34v8.13h-2.72v-8.13h-8.12v-2.72h8.12V46.5h2.72v8.12h8.12v2.72H259.25z"/>
		<path class="st0" d="M4.42,104.77V76.31h3.55v28.46H4.42z"/>
		<path class="st0" d="M39.56,104.77h-7.3l-11.42-28.3v28.29h-3.55V76.31h7.3l11.42,28.29V76.31h3.55
			C39.56,76.31,39.56,104.77,39.56,104.77z"/>
		<path class="st0" d="M45.54,76.31h22.68v2.97h-9.57v25.49H55.1V79.28h-9.57v-2.97H45.54z"/>
		<path class="st0" d="M74.2,76.31h16.37v2.97H77.75v9.4h12.46v2.97H77.75v10.15h13.16v2.97H74.2V76.31z"/>
		<path class="st0" d="M98.78,76.31h8.83c6.89,0,10.93,2.93,10.93,8.21c0,4.04-2.35,6.72-6.56,7.75l7.09,12.5h-4.08l-6.81-12
			c-0.21,0-0.37,0-0.58,0h-5.28v12h-3.55V76.31H98.78z M102.33,79.28V89.8h5.69c4.41,0,6.68-1.86,6.68-5.28s-2.27-5.24-6.68-5.24
			C108.02,79.28,102.33,79.28,102.33,79.28z"/>
		<path class="st0" d="M126.41,104.77V76.31h3.55v28.46H126.41z"/>
		<path class="st0" d="M137.51,90.54c0-8.12,5.4-14.64,13.28-14.64s13.28,6.52,13.28,14.64s-5.4,14.64-13.28,14.64
			S137.51,98.66,137.51,90.54z M160.23,90.54c0-6.81-3.79-11.67-9.45-11.67c-5.65,0-9.44,4.87-9.44,11.67s3.79,11.67,9.44,11.67
			C156.44,102.21,160.23,97.34,160.23,90.54z"/>
		<path class="st0" d="M171.61,76.31h8.83c6.89,0,10.93,2.93,10.93,8.21c0,4.04-2.35,6.72-6.56,7.75l7.09,12.5h-4.08l-6.81-12
			c-0.21,0-0.37,0-0.58,0h-5.28v12h-3.55V76.31H171.61z M175.16,79.28V89.8h5.69c4.41,0,6.68-1.86,6.68-5.28s-2.27-5.24-6.68-5.24
			C180.85,79.28,175.16,79.28,175.16,79.28z"/>
	</g>
</g>
</svg>
